<?xml version="1.0" standalone="no"?>
<!DOCTYPE svg PUBLIC "-//W3C//DTD SVG 20010904//EN"
 "http://www.w3.org/TR/2001/REC-SVG-20010904/DTD/svg10.dtd">
<svg version="1.0" xmlns="http://www.w3.org/2000/svg"
 width="512.000000pt" height="512.000000pt" viewBox="0 0 512.000000 512.000000"
 preserveAspectRatio="xMidYMid meet">
<metadata>
Created by potrace 1.14, written by Peter Selinger 2001-2017
</metadata>
<g transform="translate(0.000000,512.000000) scale(0.100000,-0.100000)"
fill="#000000" stroke="none">
<path d="M1555 4955 l1 -165 -278 0 -278 0 0 -168 0 -168 -165 1 c-142 1 -165
-1 -166 -15 -1 -8 -2 -82 -3 -165 l-1 -150 -167 -3 -168 -2 0 -278 0 -278
-165 1 -165 0 0 -1002 c0 -795 3 -1003 13 -1004 6 0 81 -1 165 -1 l152 -1 0
-278 0 -279 168 0 169 0 -1 -165 c-1 -102 3 -166 9 -168 6 -1 81 -2 168 -2
l157 1 0 -168 0 -168 278 0 279 0 -1 -162 0 -163 1004 0 1005 0 -1 162 -1 163
278 0 279 0 2 167 3 168 160 0 c146 0 160 2 165 18 3 10 5 85 4 168 l0 149
168 0 c129 0 168 3 167 13 -1 6 -1 132 0 278 l1 266 163 -1 162 0 0 1005 0
1004 -162 0 -163 -1 0 278 0 278 -167 2 -168 3 -1 150 c-1 83 -2 157 -3 165
-1 13 -25 15 -163 15 l-163 0 -3 168 -2 167 -278 0 -278 0 1 165 0 165 -1005
0 -1006 0 1 -165z"/>
</g>
</svg>
